# xmcd CD database file
#
# Track frame offsets:
#	150
#	17962
#	39512
#	57800
#	72725
#	81662
#	98775
#	108750
#	119075
#	135812
#	150237
#	161237
#	176200
#	189625
#	217937
#	234612
#	249025
#	264750
#	277412
#	291325
#	307350
#
# Disc length: 4430 seconds
#
# Revision: 2
# Processed by: cddbd v1.5.2PL0 Copyright (c) Steve Scherf et al.
# Submitted via: CDex 1.70beta2
#
DISCID=39114c15
DTITLE=Cash Johnny - Heroes and Friends Volume 3
DYEAR=1900
DGENRE=Country
TTITLE0=Man In Black (w. One Bad Pig)
TTITLE1=Will The Circle Be Unbroken (w. Roy Acuff and The Nitty Gritty Dirt Band)
TTITLE2=The Ballad Of Barbara
TTITLE3=Five Feet High And Rising (w Biff)
TTITLE4=Old Chunk Of Coal
TTITLE5=The Ten Commandments Of Love (w. David Allen Coe)
TTITLE6=Guess Things Happen That Way (w. Tommy Cash)
TTITLE7=I'll Have A New Life
TTITLE8=The Three Bells
TTITLE9=Go Wild (w. Carlene Carte
TTITLE10=Get In Line Brother (w. Marty Stuart)
TTITLE11=The World Needs A Melody (w. The Carter Family)
TTITLE12=Hey Porter (w. Earl Scruggs)
TTITLE13=The Little Drummer Boy (w. Neil Young)
TTITLE14=Get Rhythm (w. John Stewart)
TTITLE15=No Earthly Good
TTITLE16=Soldier's Last Letter (w. Ernest Tubb)
TTITLE17=Two Old Army Pals (w. Carl Perkins)
TTITLE18=Mother Maybelle (w. Marty Stuart)
TTITLE19=Mister Garfield (w. Merle Kilgore and Friends)
TTITLE20=Man In White
EXTD=(c) Westwood One Radio Networks\nRarities 97042
EXTT0=
EXTT1=
EXTT2=
EXTT3=
EXTT4=
EXTT5=
EXTT6=
EXTT7=
EXTT8=
EXTT9=
EXTT10=
EXTT11=
EXTT12=
EXTT13=
EXTT14=
EXTT15=
EXTT16=
EXTT17=
EXTT18=
EXTT19=
EXTT20=
PLAYORDER=
